<?xml version="1.0" standalone="no"?>
<!DOCTYPE svg PUBLIC "-//W3C//DTD SVG 20010904//EN"
 "http://www.w3.org/TR/2001/REC-SVG-20010904/DTD/svg10.dtd">
<svg version="1.0" xmlns="http://www.w3.org/2000/svg"
 width="119.000000pt" height="95.000000pt" viewBox="0 0 119.000000 95.000000"
 preserveAspectRatio="xMidYMid meet">

<g transform="translate(0.000000,95.000000) scale(0.100000,-0.100000)"
fill="#000000" stroke="none">
<path d="M275 776 c-133 -89 -206 -145 -218 -165 -26 -44 -24 -139 2 -194 19
-38 48 -59 311 -226 160 -100 294 -181 297 -177 15 15 -27 46 -282 207 -304
191 -315 202 -315 294 0 78 16 95 211 226 99 66 187 123 195 126 12 4 244
-135 588 -355 l69 -44 -79 -51 c-44 -29 -116 -75 -161 -104 -123 -79 -149
-105 -163 -164 -19 -78 0 -139 43 -139 23 0 393 234 406 257 15 28 -14 93 -42
93 -15 0 -347 -211 -347 -220 0 -25 30 -11 176 80 87 55 165 100 172 100 6 0
12 -10 12 -22 0 -19 -34 -44 -178 -135 -97 -61 -183 -113 -191 -115 -44 -10
-31 114 16 158 15 13 104 74 200 135 110 71 173 117 173 127 0 11 -116 90
-339 230 -186 116 -343 212 -348 212 -5 0 -99 -60 -208 -134z"/>
<path d="M470 757 c0 -15 412 -284 451 -294 12 -3 19 0 19 8 -1 12 -413 279
-456 296 -8 3 -14 -1 -14 -10z"/>
<path d="M331 665 c-79 -54 -92 -67 -83 -81 13 -19 169 -124 185 -124 24 0 71
45 63 59 -5 8 -15 6 -35 -8 l-27 -20 -72 47 c-39 26 -72 50 -72 53 0 7 106 79
117 79 4 0 37 -18 74 -40 53 -31 66 -44 62 -59 -3 -10 -1 -21 5 -25 13 -8 53
37 44 50 -8 13 -177 114 -189 113 -4 0 -37 -20 -72 -44z"/>
<path d="M160 548 c0 -14 474 -315 487 -310 5 1 8 7 8 14 0 13 -462 307 -482
308 -7 0 -13 -6 -13 -12z"/>
<path d="M650 539 c0 -8 40 -40 90 -72 107 -69 120 -75 120 -53 0 9 -37 40
-87 72 -96 62 -123 74 -123 53z"/>
<path d="M566 491 c-7 -11 2 -18 112 -85 97 -59 112 -64 112 -43 0 13 -191
137 -210 137 -5 0 -11 -4 -14 -9z"/>
<path d="M495 440 c-3 -5 42 -41 100 -80 85 -57 107 -68 111 -55 4 9 5 17 3
19 -25 20 -191 126 -198 126 -5 0 -12 -4 -16 -10z"/>
</g>
</svg>
